<svg width="16" height="17" viewBox="0 0 16 17" fill="none" xmlns="http://www.w3.org/2000/svg">
<g id="ic:round-album">
<path id="Vector" d="M7.99998 1.83333C4.31998 1.83333 1.33331 4.82 1.33331 8.5C1.33331 12.18 4.31998 15.1667 7.99998 15.1667C11.68 15.1667 14.6666 12.18 14.6666 8.5C14.6666 4.82 11.68 1.83333 7.99998 1.83333ZM7.99998 11.5C6.33998 11.5 4.99998 10.16 4.99998 8.5C4.99998 6.84 6.33998 5.5 7.99998 5.5C9.65998 5.5 11 6.84 11 8.5C11 10.16 9.65998 11.5 7.99998 11.5ZM7.99998 7.83333C7.63331 7.83333 7.33331 8.13333 7.33331 8.5C7.33331 8.86667 7.63331 9.16667 7.99998 9.16667C8.36665 9.16667 8.66665 8.86667 8.66665 8.5C8.66665 8.13333 8.36665 7.83333 7.99998 7.83333Z" fill="white"/>
</g>
</svg>
