<svg width="16" height="17" viewBox="0 0 16 17" fill="none" xmlns="http://www.w3.org/2000/svg">
<g id="ph:apple-podcasts-logo-fill">
<path id="Vector" d="M8.00002 9.5C7.65391 9.5 7.31556 9.39737 7.02778 9.20507C6.73999 9.01278 6.51569 8.73947 6.38323 8.4197C6.25078 8.09993 6.21613 7.74806 6.28365 7.40859C6.35117 7.06913 6.51785 6.75731 6.76259 6.51257C7.00733 6.26782 7.31915 6.10115 7.65862 6.03363C7.99808 5.9661 8.34995 6.00076 8.66972 6.13321C8.98949 6.26567 9.2628 6.48997 9.4551 6.77775C9.64739 7.06554 9.75002 7.40389 9.75002 7.75C9.74838 8.21362 9.56347 8.65779 9.23564 8.98562C8.90781 9.31345 8.46365 9.49836 8.00002 9.5ZM8.78127 9.5H7.21877C7.03457 9.50003 6.85266 9.54097 6.68621 9.61988C6.51976 9.69878 6.37291 9.81367 6.25627 9.95625C6.13687 10.0981 6.0512 10.2651 6.00573 10.4448C5.96026 10.6245 5.95618 10.8122 5.99377 10.9938L6.59377 13.9938C6.65123 14.2767 6.8044 14.5312 7.02751 14.7145C7.25062 14.8978 7.53005 14.9986 7.81877 15H8.18127C8.47 14.9986 8.74943 14.8978 8.97254 14.7145C9.19565 14.5312 9.34882 14.2767 9.40627 13.9938L10.0063 10.9938C10.0439 10.8122 10.0398 10.6245 9.99431 10.4448C9.94884 10.2651 9.86318 10.0981 9.74377 9.95625C9.62714 9.81367 9.48029 9.69878 9.31384 9.61988C9.14738 9.54097 8.96548 9.50003 8.78127 9.5ZM11.2625 9.76875C11.2201 9.891 11.2267 10.0249 11.2809 10.1424C11.3352 10.2599 11.4329 10.3518 11.5535 10.3987C11.6741 10.4457 11.8082 10.444 11.9276 10.3941C12.047 10.3443 12.1424 10.25 12.1938 10.1313C12.398 9.61173 12.5019 9.05822 12.5 8.5C12.5 7.30653 12.0259 6.16194 11.182 5.31802C10.3381 4.47411 9.1935 4 8.00002 4C6.80655 4 5.66196 4.47411 4.81804 5.31802C3.97413 6.16194 3.50002 7.30653 3.50002 8.5C3.49755 9.05827 3.60148 9.6119 3.80627 10.1313C3.84258 10.2246 3.90607 10.3049 3.98853 10.3617C4.071 10.4185 4.16863 10.4493 4.26877 10.45C4.33114 10.4502 4.39286 10.4374 4.45002 10.4125C4.57327 10.3649 4.67268 10.2705 4.72655 10.1499C4.78042 10.0293 4.78436 9.89227 4.73752 9.76875C4.53149 9.23836 4.45788 8.66572 4.52307 8.10046C4.58826 7.5352 4.79028 6.99435 5.11163 6.52477C5.43299 6.0552 5.86398 5.67105 6.36728 5.40561C6.87059 5.14016 7.43102 5.00144 8.00002 5.00144C8.56903 5.00144 9.12946 5.14016 9.63276 5.40561C10.1361 5.67105 10.5671 6.0552 10.8884 6.52477C11.2098 6.99435 11.4118 7.5352 11.477 8.10046C11.5422 8.66572 11.4686 9.23836 11.2625 9.76875ZM8.00002 2C6.59301 1.99864 5.22353 2.45386 4.09733 3.29729C2.97113 4.14072 2.14901 5.3268 1.75448 6.67738C1.35995 8.02795 1.4143 9.47007 1.90938 10.7871C2.40446 12.1042 3.31353 13.225 4.50002 13.9813C4.61191 14.0534 4.74786 14.0781 4.87797 14.0499C5.00807 14.0218 5.12167 13.9431 5.19377 13.8313C5.26588 13.7194 5.29059 13.5834 5.26245 13.4533C5.23432 13.3232 5.15566 13.2096 5.04377 13.1375C4.04021 12.4978 3.27121 11.5499 2.8522 10.436C2.43319 9.32212 2.38678 8.10237 2.71993 6.95987C3.05309 5.81736 3.74784 4.81373 4.69989 4.09965C5.65195 3.38557 6.80993 2.99955 8.00002 2.99955C9.19012 2.99955 10.3481 3.38557 11.3002 4.09965C12.2522 4.81373 12.947 5.81736 13.2801 6.95987C13.6133 8.10237 13.5669 9.32212 13.1479 10.436C12.7288 11.5499 11.9598 12.4978 10.9563 13.1375C10.8659 13.1965 10.7971 13.2831 10.76 13.3844C10.7229 13.4857 10.7195 13.5963 10.7505 13.6996C10.7814 13.803 10.845 13.8936 10.9316 13.9578C11.0183 14.0221 11.1234 14.0566 11.2313 14.0563C11.3258 14.0548 11.4184 14.0289 11.5 13.9813C12.6865 13.225 13.5956 12.1042 14.0907 10.7871C14.5857 9.47007 14.6401 8.02795 14.2456 6.67738C13.851 5.3268 13.0289 4.14072 11.9027 3.29729C10.7765 2.45386 9.40704 1.99864 8.00002 2Z" fill="#FFFEFE"/>
</g>
</svg>
