<svg width="16" height="17" viewBox="0 0 16 17" fill="none" xmlns="http://www.w3.org/2000/svg">
<g id="bi:arrow-up-square-fill" clip-path="url(#clip0_8_151)">
<path id="Vector" d="M2 16.5C1.46957 16.5 0.960859 16.2893 0.585786 15.9142C0.210714 15.5391 0 15.0304 0 14.5V2.5C0 1.96957 0.210714 1.46086 0.585786 1.08579C0.960859 0.710714 1.46957 0.5 2 0.5L14 0.5C14.5304 0.5 15.0391 0.710714 15.4142 1.08579C15.7893 1.46086 16 1.96957 16 2.5V14.5C16 15.0304 15.7893 15.5391 15.4142 15.9142C15.0391 16.2893 14.5304 16.5 14 16.5H2ZM8.5 12V6.207L10.646 8.354C10.6925 8.40049 10.7477 8.43736 10.8084 8.46252C10.8692 8.48768 10.9343 8.50063 11 8.50063C11.0657 8.50063 11.1308 8.48768 11.1916 8.46252C11.2523 8.43736 11.3075 8.40049 11.354 8.354C11.4005 8.30751 11.4374 8.25232 11.4625 8.19158C11.4877 8.13084 11.5006 8.06574 11.5006 8C11.5006 7.93426 11.4877 7.86916 11.4625 7.80842C11.4374 7.74768 11.4005 7.69249 11.354 7.646L8.354 4.646C8.30755 4.59944 8.25238 4.56249 8.19163 4.53729C8.13089 4.51208 8.06577 4.49911 8 4.49911C7.93423 4.49911 7.86911 4.51208 7.80837 4.53729C7.74762 4.56249 7.69245 4.59944 7.646 4.646L4.646 7.646C4.55211 7.73989 4.49937 7.86722 4.49937 8C4.49937 8.13278 4.55211 8.26011 4.646 8.354C4.73989 8.44789 4.86722 8.50063 5 8.50063C5.13278 8.50063 5.26011 8.44789 5.354 8.354L7.5 6.207V12C7.5 12.1326 7.55268 12.2598 7.64645 12.3536C7.74021 12.4473 7.86739 12.5 8 12.5C8.13261 12.5 8.25979 12.4473 8.35355 12.3536C8.44732 12.2598 8.5 12.1326 8.5 12Z" fill="white"/>
</g>
<defs>
<clipPath id="clip0_8_151">
<rect width="16" height="16" fill="white" transform="translate(0 0.5)"/>
</clipPath>
</defs>
</svg>
