<svg width="14" height="15" viewBox="0 0 14 15" fill="none" xmlns="http://www.w3.org/2000/svg">
<g id="ic:round-explore">
<path id="Vector" d="M7.00002 6.85834C6.64419 6.85834 6.35835 7.14417 6.35835 7.5C6.35835 7.85584 6.64419 8.14167 7.00002 8.14167C7.35585 8.14167 7.64169 7.85584 7.64169 7.5C7.64169 7.14417 7.35585 6.85834 7.00002 6.85834ZM7.00002 1.66667C3.78002 1.66667 1.16669 4.28 1.16669 7.5C1.16669 10.72 3.78002 13.3333 7.00002 13.3333C10.22 13.3333 12.8334 10.72 12.8334 7.5C12.8334 4.28 10.22 1.66667 7.00002 1.66667ZM8.27752 8.7775L3.50002 11L5.72252 6.22251L10.5 4.00001L8.27752 8.7775Z" fill="white"/>
</g>
</svg>
