<svg width="14" height="15" viewBox="0 0 14 15" fill="none" xmlns="http://www.w3.org/2000/svg">
<g id="ant-design:home-filled">
<path id="Vector" d="M12.9404 7.40431L7.309 1.77697C7.26845 1.73634 7.22029 1.70411 7.16727 1.68212C7.11425 1.66012 7.05741 1.6488 7.00001 1.6488C6.94261 1.6488 6.88578 1.66012 6.83276 1.68212C6.77974 1.70411 6.73158 1.73634 6.69103 1.77697L1.05958 7.40431C0.89552 7.56837 0.802551 7.79122 0.802551 8.02365C0.802551 8.50626 1.19493 8.89865 1.67755 8.89865H2.27091V12.9141C2.27091 13.1561 2.46642 13.3516 2.70841 13.3516H6.12501V10.2891H7.65626V13.3516H11.2916C11.5336 13.3516 11.7291 13.1561 11.7291 12.9141V8.89865H12.3225C12.5549 8.89865 12.7777 8.80704 12.9418 8.64161C13.2822 8.29982 13.2822 7.74611 12.9404 7.40431Z" fill="#38BACC"/>
</g>
</svg>
