<svg width="16" height="21" viewBox="0 0 16 21" fill="none" xmlns="http://www.w3.org/2000/svg">
<path id="Vector" d="M7.9975 21C7.46723 21 6.95868 20.7788 6.58373 20.3849C6.20877 19.9911 5.99812 19.457 5.99812 18.9H9.99687C9.99687 19.457 9.78623 19.9911 9.41127 20.3849C9.03631 20.7788 8.52777 21 7.9975 21ZM15.995 17.85H0V15.75L1.99937 14.7V8.925C1.94671 7.44358 2.26523 5.97359 2.92309 4.662C3.24682 4.06064 3.68828 3.5382 4.21833 3.12916C4.74838 2.72012 5.35499 2.43377 5.99812 2.289V4.37546e-06H9.64298C9.00967 0.743413 8.61661 1.67828 8.52012 2.67068C8.42364 3.66309 8.62867 4.6621 9.10585 5.52462C9.58302 6.38714 10.3079 7.06891 11.1765 7.47225C12.0452 7.87559 13.0131 7.97982 13.9416 7.77C13.9766 8.14485 13.9936 8.53335 13.9936 8.925V14.7L15.993 15.75V17.85H15.995ZM12.9959 6.3C12.6021 6.29931 12.2122 6.21715 11.8486 6.05821C11.485 5.89928 11.1548 5.66667 10.8767 5.37368C10.5987 5.08069 10.3784 4.73305 10.2283 4.35061C10.0781 3.96817 10.0012 3.55842 10.0019 3.14475C10.0025 2.73109 10.0808 2.32161 10.2321 1.9397C10.3834 1.55779 10.6049 1.21092 10.8838 0.918905C11.1628 0.626888 11.4937 0.39544 11.8579 0.237775C12.222 0.0801095 12.6121 -0.00068507 13.0059 4.37546e-06C13.8013 0.00139677 14.5636 0.334606 15.1251 0.92633C15.6866 1.51805 16.0013 2.31982 16 3.15525C15.9987 3.99069 15.6814 4.79135 15.1181 5.3811C14.5547 5.97086 13.7913 6.3014 12.9959 6.3Z" fill="white"/>
</svg>
