<svg width="14" height="15" viewBox="0 0 14 15" fill="none" xmlns="http://www.w3.org/2000/svg">
<g id="bi:person-fill">
<path id="Vector" d="M2.625 12.75C2.625 12.75 1.75 12.75 1.75 11.875C1.75 11 2.625 8.375 7 8.375C11.375 8.375 12.25 11 12.25 11.875C12.25 12.75 11.375 12.75 11.375 12.75H2.625ZM7 7.5C7.69619 7.5 8.36387 7.22344 8.85616 6.73116C9.34844 6.23887 9.625 5.57119 9.625 4.875C9.625 4.17881 9.34844 3.51113 8.85616 3.01884C8.36387 2.52656 7.69619 2.25 7 2.25C6.30381 2.25 5.63613 2.52656 5.14384 3.01884C4.65156 3.51113 4.375 4.17881 4.375 4.875C4.375 5.57119 4.65156 6.23887 5.14384 6.73116C5.63613 7.22344 6.30381 7.5 7 7.5Z" fill="#FFFEFE"/>
</g>
</svg>
