<svg width="16" height="17" viewBox="0 0 16 17" fill="none" xmlns="http://www.w3.org/2000/svg">
<g id="fluent:history-16-regular">
<path id="Vector" d="M8 3.5C8.98891 3.5 9.95561 3.79324 10.7779 4.34265C11.6001 4.89206 12.241 5.67295 12.6194 6.58658C12.9978 7.50021 13.0969 8.50555 12.9039 9.47545C12.711 10.4454 12.2348 11.3363 11.5355 12.0355C10.8363 12.7348 9.94536 13.211 8.97545 13.4039C8.00555 13.5969 7.00021 13.4978 6.08658 13.1194C5.17295 12.741 4.39206 12.1001 3.84265 11.2779C3.29324 10.4556 3 9.48891 3 8.5C3 8.36739 2.94732 8.24021 2.85355 8.14645C2.75979 8.05268 2.63261 8 2.5 8C2.36739 8 2.24021 8.05268 2.14645 8.14645C2.05268 8.24021 2 8.36739 2 8.5C1.99997 9.87381 2.47139 11.206 3.33549 12.274C4.19959 13.3421 5.40403 14.0812 6.74757 14.368C8.09112 14.6547 9.49238 14.4717 10.7172 13.8496C11.9421 13.2274 12.9163 12.2038 13.4772 10.9497C14.0381 9.69559 14.1516 8.287 13.7988 6.95927C13.446 5.63154 12.6482 4.46509 11.5388 3.65483C10.4294 2.84456 9.07548 2.43955 7.70336 2.50747C6.33123 2.57539 5.02397 3.11213 4 4.028V3C4 2.86739 3.94732 2.74021 3.85355 2.64645C3.75979 2.55268 3.63261 2.5 3.5 2.5C3.36739 2.5 3.24021 2.55268 3.14645 2.64645C3.05268 2.74021 3 2.86739 3 3V6C3 6.13261 3.05268 6.25979 3.14645 6.35355C3.24021 6.44732 3.36739 6.5 3.5 6.5H5.5C5.63261 6.5 5.75979 6.44732 5.85355 6.35355C5.94732 6.25979 6 6.13261 6 6C6 5.86739 5.94732 5.74021 5.85355 5.64645C5.75979 5.55268 5.63261 5.5 5.5 5.5H4C4.4653 4.87856 5.06913 4.37421 5.76351 4.02702C6.45788 3.67983 7.22367 3.49938 8 3.5ZM8.001 6C8.001 5.86739 7.94832 5.74021 7.85455 5.64645C7.76079 5.55268 7.63361 5.5 7.501 5.5C7.36839 5.5 7.24121 5.55268 7.14745 5.64645C7.05368 5.74021 7.001 5.86739 7.001 6V9C7.001 9.13261 7.05368 9.25979 7.14745 9.35355C7.24121 9.44732 7.36839 9.5 7.501 9.5H9.501C9.63361 9.5 9.76079 9.44732 9.85455 9.35355C9.94832 9.25979 10.001 9.13261 10.001 9C10.001 8.86739 9.94832 8.74021 9.85455 8.64645C9.76079 8.55268 9.63361 8.5 9.501 8.5H8.001V6Z" fill="#FFFEFE"/>
</g>
</svg>
