<svg width="18" height="18" viewBox="0 0 18 18" fill="none" xmlns="http://www.w3.org/2000/svg">
<g id="carbon:repeat">
<path id="Vector" d="M3.375 3.375H14.7218L12.7046 1.35787L13.5 0.5625L16.875 3.9375L13.5 7.3125L12.7046 6.51713L14.7218 4.5H3.375V8.4375H2.25V4.5C2.2503 4.20172 2.36892 3.91575 2.57983 3.70483C2.79075 3.49392 3.07672 3.3753 3.375 3.375ZM5.29537 11.4829L3.27825 13.5H14.625V9.5625H15.75V13.5C15.7497 13.7983 15.6311 14.0843 15.4202 14.2952C15.2093 14.5061 14.9233 14.6247 14.625 14.625H3.27825L5.29537 16.6421L4.5 17.4375L1.125 14.0625L4.5 10.6875L5.29537 11.4829Z" fill="white"/>
</g>
</svg>
