<svg width="24" height="25" viewBox="0 0 24 25" fill="none" xmlns="http://www.w3.org/2000/svg">
<g id="ant-design:setting-outlined">
<path id="Vector" d="M21.675 9.83515L20.1398 11.1476C20.2125 11.593 20.25 12.0476 20.25 12.5023C20.25 12.957 20.2125 13.4117 20.1398 13.857L21.675 15.1695C21.7908 15.2687 21.8737 15.4007 21.9126 15.548C21.9515 15.6954 21.9447 15.8511 21.893 15.9945L21.8719 16.0555C21.4492 17.2367 20.8164 18.3316 20.0039 19.2875L19.9617 19.3367C19.8631 19.4526 19.7318 19.5359 19.5849 19.5757C19.4381 19.6154 19.2826 19.6097 19.1391 19.5594L17.2336 18.882C16.5305 19.4586 15.7453 19.9133 14.8969 20.232L14.5289 22.2242C14.5011 22.3741 14.4284 22.512 14.3204 22.6196C14.2124 22.7272 14.0742 22.7994 13.9242 22.8266L13.8609 22.8383C12.6398 23.0586 11.3555 23.0586 10.1344 22.8383L10.0711 22.8266C9.92108 22.7994 9.78289 22.7272 9.67488 22.6196C9.56688 22.512 9.49416 22.3741 9.4664 22.2242L9.09609 20.2226C8.25442 19.9038 7.47062 19.4494 6.77577 18.8773L4.85624 19.5594C4.71272 19.6101 4.55716 19.616 4.41022 19.5762C4.26327 19.5365 4.13191 19.4529 4.03359 19.3367L3.9914 19.2875C3.17987 18.331 2.54712 17.2362 2.12343 16.0555L2.10234 15.9945C1.99687 15.7016 2.08359 15.3734 2.32031 15.1695L3.87421 13.843C3.80156 13.4023 3.7664 12.9523 3.7664 12.5047C3.7664 12.0547 3.80156 11.6047 3.87421 11.1664L2.32031 9.83984C2.20451 9.74071 2.12164 9.60869 2.0827 9.46132C2.04377 9.31395 2.05062 9.15822 2.10234 9.01484L2.12343 8.9539C2.54765 7.77265 3.17577 6.6828 3.9914 5.72187L4.03359 5.67265C4.13215 5.55676 4.26352 5.47344 4.41037 5.4337C4.55723 5.39395 4.71268 5.39963 4.85624 5.44999L6.77577 6.13202C7.47421 5.5578 8.25468 5.10312 9.09609 4.78671L9.4664 2.78515C9.49416 2.63525 9.56688 2.49734 9.67488 2.38975C9.78289 2.28216 9.92108 2.20998 10.0711 2.1828L10.1344 2.17109C11.3667 1.94959 12.6286 1.94959 13.8609 2.17109L13.9242 2.1828C14.0742 2.20998 14.2124 2.28216 14.3204 2.38975C14.4284 2.49734 14.5011 2.63525 14.5289 2.78515L14.8969 4.77734C15.745 5.09525 16.5345 5.55142 17.2336 6.12733L19.1391 5.44999C19.2826 5.39923 19.4381 5.39334 19.5851 5.43312C19.732 5.47289 19.8634 5.55643 19.9617 5.67265L20.0039 5.72187C20.8195 6.68515 21.4476 7.77265 21.8719 8.9539L21.893 9.01484C21.9984 9.30312 21.9117 9.63124 21.675 9.83515ZM18.4758 13.5805C18.5344 13.2266 18.5648 12.8633 18.5648 12.5C18.5648 12.1367 18.5344 11.7734 18.4758 11.4195L18.3211 10.4797L20.0719 8.98202C19.8065 8.37056 19.4714 7.79174 19.0734 7.25702L16.8984 8.02812L16.1625 7.42343C15.6023 6.96406 14.9789 6.60312 14.3039 6.34999L13.4109 6.01484L12.9914 3.7414C12.3295 3.6664 11.6612 3.6664 10.9992 3.7414L10.5797 6.01952L9.69374 6.35937C9.02577 6.61249 8.40468 6.97343 7.84921 7.43046L7.11327 8.03749L4.92421 7.25937C4.52577 7.79609 4.19296 8.37499 3.92577 8.98437L5.69531 10.4961L5.54296 11.4336C5.48671 11.7828 5.45624 12.1437 5.45624 12.5C5.45624 12.8586 5.48437 13.2172 5.54296 13.5664L5.69531 14.5039L3.92577 16.0156C4.19062 16.6273 4.52577 17.2039 4.92421 17.7406L7.11327 16.9625L7.84921 17.5695C8.40468 18.0266 9.02577 18.3875 9.69374 18.6406L10.582 18.9758L11.0016 21.2539C11.6601 21.3289 12.3328 21.3289 12.9937 21.2539L13.4133 18.9805L14.3062 18.6453C14.9789 18.3922 15.6047 18.0312 16.1648 17.5719L16.9008 16.9672L19.0758 17.7383C19.4742 17.2016 19.807 16.6226 20.0742 16.0133L18.3234 14.5156L18.4758 13.5805ZM12 16.8594C9.72187 16.8594 7.87499 15.0125 7.87499 12.7344C7.87499 10.4562 9.72187 8.60937 12 8.60937C14.2781 8.60937 16.125 10.4562 16.125 12.7344C16.125 15.0125 14.2781 16.8594 12 16.8594ZM13.8562 10.8781C13.6128 10.634 13.3234 10.4403 13.0049 10.3084C12.6863 10.1765 12.3448 10.1088 12 10.1094C11.2992 10.1094 10.6406 10.3836 10.1437 10.8781C9.89958 11.1216 9.70596 11.4109 9.57403 11.7295C9.4421 12.0481 9.37446 12.3896 9.37499 12.7344C9.37499 13.4351 9.64921 14.0937 10.1437 14.5906C10.6406 15.0875 11.2992 15.3594 12 15.3594C12.7008 15.3594 13.3594 15.0875 13.8562 14.5906C14.1004 14.3472 14.294 14.0578 14.426 13.7392C14.5579 13.4207 14.6255 13.0792 14.625 12.7344C14.625 12.0336 14.3508 11.375 13.8562 10.8781Z" fill="white"/>
</g>
</svg>
